<mxfile host="app.diagrams.net" modified="2021-12-23T08:05:06.212Z" agent="5.0 (Windows NT 10.0; Win64; x64) AppleWebKit/537.36 (KHTML, like Gecko) Chrome/96.0.4664.110 Safari/537.36" etag="9dl5OnnjjCNKP0R4UsrO" version="15.9.6" type="github">
  <diagram id="7bYu3S5xshXxI2PsXWl_" name="Page-1">
    <mxGraphModel dx="2500" dy="896" grid="0" gridSize="10" guides="1" tooltips="1" connect="1" arrows="1" fold="1" page="1" pageScale="1" pageWidth="827" pageHeight="1169" math="0" shadow="0">
      <root>
        <mxCell id="0" />
        <mxCell id="1" parent="0" />
        <mxCell id="s2p4G6TEXcPG5f_NmB---62" style="edgeStyle=orthogonalEdgeStyle;rounded=0;orthogonalLoop=1;jettySize=auto;html=1;exitX=0.5;exitY=1;exitDx=0;exitDy=0;entryX=0.5;entryY=0;entryDx=0;entryDy=0;" edge="1" parent="1" source="s2p4G6TEXcPG5f_NmB---1" target="s2p4G6TEXcPG5f_NmB---61">
          <mxGeometry relative="1" as="geometry" />
        </mxCell>
        <mxCell id="s2p4G6TEXcPG5f_NmB---1" value="开关机" style="rounded=0;whiteSpace=wrap;html=1;fontSize=14;" vertex="1" parent="1">
          <mxGeometry x="-442" y="259.5" width="58" height="38" as="geometry" />
        </mxCell>
        <mxCell id="s2p4G6TEXcPG5f_NmB---22" style="edgeStyle=orthogonalEdgeStyle;rounded=0;orthogonalLoop=1;jettySize=auto;html=1;exitX=0.5;exitY=1;exitDx=0;exitDy=0;entryX=0.5;entryY=0;entryDx=0;entryDy=0;" edge="1" parent="1" source="s2p4G6TEXcPG5f_NmB---5" target="s2p4G6TEXcPG5f_NmB---18">
          <mxGeometry relative="1" as="geometry" />
        </mxCell>
        <mxCell id="s2p4G6TEXcPG5f_NmB---5" value="&lt;font style=&quot;font-size: 14px&quot;&gt;档位键&lt;/font&gt;" style="rounded=0;whiteSpace=wrap;html=1;fontSize=24;" vertex="1" parent="1">
          <mxGeometry x="4" y="191" width="75" height="38" as="geometry" />
        </mxCell>
        <mxCell id="s2p4G6TEXcPG5f_NmB---184" style="edgeStyle=orthogonalEdgeStyle;rounded=0;orthogonalLoop=1;jettySize=auto;html=1;exitX=0.5;exitY=1;exitDx=0;exitDy=0;entryX=0.5;entryY=0;entryDx=0;entryDy=0;fontSize=12;" edge="1" parent="1" source="s2p4G6TEXcPG5f_NmB---6" target="s2p4G6TEXcPG5f_NmB---182">
          <mxGeometry relative="1" as="geometry" />
        </mxCell>
        <mxCell id="s2p4G6TEXcPG5f_NmB---6" value="&lt;span style=&quot;font-size: 14px&quot;&gt;温度设置键&lt;/span&gt;" style="rounded=0;whiteSpace=wrap;html=1;fontSize=24;" vertex="1" parent="1">
          <mxGeometry x="149.25" y="200" width="75" height="38" as="geometry" />
        </mxCell>
        <mxCell id="s2p4G6TEXcPG5f_NmB---139" style="edgeStyle=orthogonalEdgeStyle;rounded=0;orthogonalLoop=1;jettySize=auto;html=1;exitX=0.5;exitY=1;exitDx=0;exitDy=0;entryX=0.5;entryY=0;entryDx=0;entryDy=0;fontSize=12;" edge="1" parent="1" source="s2p4G6TEXcPG5f_NmB---7" target="s2p4G6TEXcPG5f_NmB---51">
          <mxGeometry relative="1" as="geometry">
            <Array as="points">
              <mxPoint x="-558" y="715" />
              <mxPoint x="-670" y="715" />
              <mxPoint x="-670" y="767" />
              <mxPoint x="-722" y="767" />
            </Array>
          </mxGeometry>
        </mxCell>
        <mxCell id="s2p4G6TEXcPG5f_NmB---140" style="edgeStyle=orthogonalEdgeStyle;rounded=0;orthogonalLoop=1;jettySize=auto;html=1;exitX=0.5;exitY=1;exitDx=0;exitDy=0;fontSize=12;" edge="1" parent="1" source="s2p4G6TEXcPG5f_NmB---7" target="s2p4G6TEXcPG5f_NmB---56">
          <mxGeometry relative="1" as="geometry">
            <Array as="points">
              <mxPoint x="-558" y="714" />
              <mxPoint x="-670" y="714" />
              <mxPoint x="-670" y="768" />
              <mxPoint x="-616" y="768" />
            </Array>
          </mxGeometry>
        </mxCell>
        <mxCell id="s2p4G6TEXcPG5f_NmB---194" style="edgeStyle=orthogonalEdgeStyle;rounded=0;orthogonalLoop=1;jettySize=auto;html=1;exitX=0.5;exitY=1;exitDx=0;exitDy=0;fontSize=12;" edge="1" parent="1" source="s2p4G6TEXcPG5f_NmB---7" target="s2p4G6TEXcPG5f_NmB---193">
          <mxGeometry relative="1" as="geometry">
            <Array as="points">
              <mxPoint x="-558" y="715" />
              <mxPoint x="-504" y="715" />
            </Array>
          </mxGeometry>
        </mxCell>
        <mxCell id="s2p4G6TEXcPG5f_NmB---7" value="&lt;font style=&quot;font-size: 14px&quot;&gt;定时设置键&lt;/font&gt;" style="rounded=0;whiteSpace=wrap;html=1;fontSize=24;" vertex="1" parent="1">
          <mxGeometry x="-595" y="656" width="75" height="38" as="geometry" />
        </mxCell>
        <mxCell id="s2p4G6TEXcPG5f_NmB---17" style="edgeStyle=orthogonalEdgeStyle;rounded=0;orthogonalLoop=1;jettySize=auto;html=1;exitX=0.5;exitY=1;exitDx=0;exitDy=0;entryX=0.5;entryY=0;entryDx=0;entryDy=0;" edge="1" parent="1" source="s2p4G6TEXcPG5f_NmB---8" target="s2p4G6TEXcPG5f_NmB---12">
          <mxGeometry relative="1" as="geometry" />
        </mxCell>
        <mxCell id="s2p4G6TEXcPG5f_NmB---8" value="配网" style="rounded=0;whiteSpace=wrap;html=1;fontSize=14;" vertex="1" parent="1">
          <mxGeometry x="-272" y="263.5" width="58" height="38" as="geometry" />
        </mxCell>
        <mxCell id="s2p4G6TEXcPG5f_NmB---34" value="" style="edgeStyle=orthogonalEdgeStyle;rounded=0;orthogonalLoop=1;jettySize=auto;html=1;" edge="1" parent="1" source="s2p4G6TEXcPG5f_NmB---12" target="s2p4G6TEXcPG5f_NmB---13">
          <mxGeometry relative="1" as="geometry" />
        </mxCell>
        <mxCell id="s2p4G6TEXcPG5f_NmB---12" value="wifi指示灯闪烁" style="ellipse;whiteSpace=wrap;html=1;" vertex="1" parent="1">
          <mxGeometry x="-274.5" y="324.5" width="63" height="41" as="geometry" />
        </mxCell>
        <mxCell id="s2p4G6TEXcPG5f_NmB---37" style="edgeStyle=orthogonalEdgeStyle;rounded=0;orthogonalLoop=1;jettySize=auto;html=1;exitX=0.5;exitY=1;exitDx=0;exitDy=0;entryX=0.413;entryY=0.049;entryDx=0;entryDy=0;entryPerimeter=0;" edge="1" parent="1" source="s2p4G6TEXcPG5f_NmB---13" target="s2p4G6TEXcPG5f_NmB---35">
          <mxGeometry relative="1" as="geometry" />
        </mxCell>
        <mxCell id="s2p4G6TEXcPG5f_NmB---38" style="edgeStyle=orthogonalEdgeStyle;rounded=0;orthogonalLoop=1;jettySize=auto;html=1;exitX=0.5;exitY=1;exitDx=0;exitDy=0;entryX=0.5;entryY=0;entryDx=0;entryDy=0;" edge="1" parent="1" source="s2p4G6TEXcPG5f_NmB---13">
          <mxGeometry relative="1" as="geometry">
            <mxPoint x="-201.5" y="470.5" as="targetPoint" />
          </mxGeometry>
        </mxCell>
        <mxCell id="s2p4G6TEXcPG5f_NmB---13" value="配网超过3分钟" style="rhombus;whiteSpace=wrap;html=1;" vertex="1" parent="1">
          <mxGeometry x="-290" y="387.5" width="94" height="37" as="geometry" />
        </mxCell>
        <mxCell id="s2p4G6TEXcPG5f_NmB---134" style="edgeStyle=orthogonalEdgeStyle;rounded=0;orthogonalLoop=1;jettySize=auto;html=1;exitX=0.5;exitY=1;exitDx=0;exitDy=0;entryX=0.5;entryY=0;entryDx=0;entryDy=0;fontSize=12;" edge="1" parent="1" source="s2p4G6TEXcPG5f_NmB---18" target="s2p4G6TEXcPG5f_NmB---110">
          <mxGeometry relative="1" as="geometry" />
        </mxCell>
        <mxCell id="s2p4G6TEXcPG5f_NmB---18" value="低/中/高档位指示灯（切换" style="ellipse;whiteSpace=wrap;html=1;" vertex="1" parent="1">
          <mxGeometry x="10" y="258" width="63" height="41" as="geometry" />
        </mxCell>
        <mxCell id="s2p4G6TEXcPG5f_NmB---157" style="edgeStyle=orthogonalEdgeStyle;rounded=0;orthogonalLoop=1;jettySize=auto;html=1;exitX=0.5;exitY=1;exitDx=0;exitDy=0;fontSize=12;" edge="1" parent="1" source="s2p4G6TEXcPG5f_NmB---35">
          <mxGeometry relative="1" as="geometry">
            <mxPoint x="-95" y="245.5" as="targetPoint" />
          </mxGeometry>
        </mxCell>
        <mxCell id="s2p4G6TEXcPG5f_NmB---35" value="wifi指示灯长灭" style="ellipse;whiteSpace=wrap;html=1;" vertex="1" parent="1">
          <mxGeometry x="-309" y="470.5" width="63" height="41" as="geometry" />
        </mxCell>
        <mxCell id="s2p4G6TEXcPG5f_NmB---158" style="edgeStyle=orthogonalEdgeStyle;rounded=0;orthogonalLoop=1;jettySize=auto;html=1;exitX=0.5;exitY=1;exitDx=0;exitDy=0;fontSize=12;" edge="1" parent="1" source="s2p4G6TEXcPG5f_NmB---36">
          <mxGeometry relative="1" as="geometry">
            <mxPoint x="-200.52941176470586" y="533.5" as="targetPoint" />
          </mxGeometry>
        </mxCell>
        <mxCell id="s2p4G6TEXcPG5f_NmB---36" value="wifi指示灯长亮" style="ellipse;whiteSpace=wrap;html=1;" vertex="1" parent="1">
          <mxGeometry x="-232" y="470.5" width="63" height="41" as="geometry" />
        </mxCell>
        <mxCell id="s2p4G6TEXcPG5f_NmB---39" value="是" style="text;html=1;strokeColor=none;fillColor=none;align=center;verticalAlign=middle;whiteSpace=wrap;rounded=0;" vertex="1" parent="1">
          <mxGeometry x="-304" y="422.5" width="60" height="30" as="geometry" />
        </mxCell>
        <mxCell id="s2p4G6TEXcPG5f_NmB---40" value="配网成功" style="text;html=1;strokeColor=none;fillColor=none;align=center;verticalAlign=middle;whiteSpace=wrap;rounded=0;" vertex="1" parent="1">
          <mxGeometry x="-244" y="422.5" width="60" height="30" as="geometry" />
        </mxCell>
        <mxCell id="s2p4G6TEXcPG5f_NmB---179" style="edgeStyle=orthogonalEdgeStyle;rounded=0;orthogonalLoop=1;jettySize=auto;html=1;exitX=0.5;exitY=1;exitDx=0;exitDy=0;fontSize=12;" edge="1" parent="1" source="s2p4G6TEXcPG5f_NmB---50" target="s2p4G6TEXcPG5f_NmB---163">
          <mxGeometry relative="1" as="geometry" />
        </mxCell>
        <mxCell id="s2p4G6TEXcPG5f_NmB---50" value="断码屏闪烁显示目标温度档位值" style="ellipse;whiteSpace=wrap;html=1;" vertex="1" parent="1">
          <mxGeometry x="70" y="381" width="74" height="48" as="geometry" />
        </mxCell>
        <mxCell id="s2p4G6TEXcPG5f_NmB---167" style="edgeStyle=orthogonalEdgeStyle;rounded=0;orthogonalLoop=1;jettySize=auto;html=1;exitX=0.5;exitY=1;exitDx=0;exitDy=0;fontSize=12;" edge="1" parent="1" source="s2p4G6TEXcPG5f_NmB---51" target="s2p4G6TEXcPG5f_NmB---165">
          <mxGeometry relative="1" as="geometry" />
        </mxCell>
        <mxCell id="s2p4G6TEXcPG5f_NmB---51" value="断码屏闪烁显示定时时长" style="ellipse;whiteSpace=wrap;html=1;" vertex="1" parent="1">
          <mxGeometry x="-757" y="793" width="71" height="47" as="geometry" />
        </mxCell>
        <mxCell id="s2p4G6TEXcPG5f_NmB---141" style="edgeStyle=orthogonalEdgeStyle;rounded=0;orthogonalLoop=1;jettySize=auto;html=1;exitX=0.5;exitY=1;exitDx=0;exitDy=0;fontSize=12;" edge="1" parent="1">
          <mxGeometry relative="1" as="geometry">
            <mxPoint x="-615.5000000000005" y="825.0000000000002" as="sourcePoint" />
            <mxPoint x="-671" y="880" as="targetPoint" />
            <Array as="points">
              <mxPoint x="-616" y="860" />
              <mxPoint x="-670" y="860" />
            </Array>
          </mxGeometry>
        </mxCell>
        <mxCell id="s2p4G6TEXcPG5f_NmB---56" value="H单位指示灯常亮" style="ellipse;whiteSpace=wrap;html=1;" vertex="1" parent="1">
          <mxGeometry x="-649" y="792" width="67" height="48" as="geometry" />
        </mxCell>
        <mxCell id="s2p4G6TEXcPG5f_NmB---65" value="" style="edgeStyle=orthogonalEdgeStyle;rounded=0;orthogonalLoop=1;jettySize=auto;html=1;" edge="1" parent="1" source="s2p4G6TEXcPG5f_NmB---61" target="s2p4G6TEXcPG5f_NmB---64">
          <mxGeometry relative="1" as="geometry" />
        </mxCell>
        <mxCell id="s2p4G6TEXcPG5f_NmB---70" style="edgeStyle=orthogonalEdgeStyle;rounded=0;orthogonalLoop=1;jettySize=auto;html=1;exitX=0.5;exitY=1;exitDx=0;exitDy=0;" edge="1" parent="1" source="s2p4G6TEXcPG5f_NmB---61" target="s2p4G6TEXcPG5f_NmB---67">
          <mxGeometry relative="1" as="geometry" />
        </mxCell>
        <mxCell id="s2p4G6TEXcPG5f_NmB---71" style="edgeStyle=orthogonalEdgeStyle;rounded=0;orthogonalLoop=1;jettySize=auto;html=1;exitX=0.5;exitY=1;exitDx=0;exitDy=0;" edge="1" parent="1" source="s2p4G6TEXcPG5f_NmB---61" target="s2p4G6TEXcPG5f_NmB---69">
          <mxGeometry relative="1" as="geometry" />
        </mxCell>
        <mxCell id="s2p4G6TEXcPG5f_NmB---145" style="edgeStyle=orthogonalEdgeStyle;rounded=0;orthogonalLoop=1;jettySize=auto;html=1;exitX=0.5;exitY=1;exitDx=0;exitDy=0;entryX=0.5;entryY=0;entryDx=0;entryDy=0;fontSize=12;" edge="1" parent="1" source="s2p4G6TEXcPG5f_NmB---61" target="s2p4G6TEXcPG5f_NmB---127">
          <mxGeometry relative="1" as="geometry" />
        </mxCell>
        <mxCell id="s2p4G6TEXcPG5f_NmB---146" style="edgeStyle=orthogonalEdgeStyle;rounded=0;orthogonalLoop=1;jettySize=auto;html=1;exitX=0.5;exitY=1;exitDx=0;exitDy=0;entryX=0.5;entryY=0;entryDx=0;entryDy=0;fontSize=12;" edge="1" parent="1" source="s2p4G6TEXcPG5f_NmB---61" target="s2p4G6TEXcPG5f_NmB---128">
          <mxGeometry relative="1" as="geometry" />
        </mxCell>
        <mxCell id="s2p4G6TEXcPG5f_NmB---149" style="edgeStyle=orthogonalEdgeStyle;rounded=0;orthogonalLoop=1;jettySize=auto;html=1;exitX=0.5;exitY=1;exitDx=0;exitDy=0;entryX=0.5;entryY=0;entryDx=0;entryDy=0;fontSize=12;" edge="1" parent="1" source="s2p4G6TEXcPG5f_NmB---61" target="s2p4G6TEXcPG5f_NmB---148">
          <mxGeometry relative="1" as="geometry" />
        </mxCell>
        <mxCell id="s2p4G6TEXcPG5f_NmB---61" value="开机" style="rhombus;whiteSpace=wrap;html=1;" vertex="1" parent="1">
          <mxGeometry x="-460" y="325.5" width="94" height="37" as="geometry" />
        </mxCell>
        <mxCell id="s2p4G6TEXcPG5f_NmB---64" value="定时指示灯常亮" style="ellipse;whiteSpace=wrap;html=1;" vertex="1" parent="1">
          <mxGeometry x="-387" y="412.5" width="56" height="41" as="geometry" />
        </mxCell>
        <mxCell id="s2p4G6TEXcPG5f_NmB---66" value="否" style="text;html=1;strokeColor=none;fillColor=none;align=center;verticalAlign=middle;whiteSpace=wrap;rounded=0;" vertex="1" parent="1">
          <mxGeometry x="-402" y="362.5" width="60" height="30" as="geometry" />
        </mxCell>
        <mxCell id="s2p4G6TEXcPG5f_NmB---67" value="断码屏温度显示" style="ellipse;whiteSpace=wrap;html=1;" vertex="1" parent="1">
          <mxGeometry x="-718" y="409.5" width="56" height="41" as="geometry" />
        </mxCell>
        <mxCell id="s2p4G6TEXcPG5f_NmB---69" value="℃灯常亮" style="ellipse;whiteSpace=wrap;html=1;" vertex="1" parent="1">
          <mxGeometry x="-654" y="409.5" width="56" height="41" as="geometry" />
        </mxCell>
        <mxCell id="s2p4G6TEXcPG5f_NmB---73" value="是" style="text;html=1;strokeColor=none;fillColor=none;align=center;verticalAlign=middle;whiteSpace=wrap;rounded=0;" vertex="1" parent="1">
          <mxGeometry x="-532" y="358.5" width="60" height="30" as="geometry" />
        </mxCell>
        <mxCell id="s2p4G6TEXcPG5f_NmB---77" style="edgeStyle=orthogonalEdgeStyle;rounded=0;orthogonalLoop=1;jettySize=auto;html=1;" edge="1" parent="1" target="s2p4G6TEXcPG5f_NmB---75">
          <mxGeometry relative="1" as="geometry">
            <mxPoint x="683" y="231" as="sourcePoint" />
            <Array as="points">
              <mxPoint x="683" y="248" />
              <mxPoint x="611" y="248" />
            </Array>
          </mxGeometry>
        </mxCell>
        <mxCell id="s2p4G6TEXcPG5f_NmB---78" style="edgeStyle=orthogonalEdgeStyle;rounded=0;orthogonalLoop=1;jettySize=auto;html=1;exitX=0.5;exitY=1;exitDx=0;exitDy=0;" edge="1" parent="1">
          <mxGeometry relative="1" as="geometry">
            <mxPoint x="682.5" y="230" as="sourcePoint" />
            <mxPoint x="755" y="268" as="targetPoint" />
            <Array as="points">
              <mxPoint x="683" y="248" />
              <mxPoint x="755" y="248" />
            </Array>
          </mxGeometry>
        </mxCell>
        <mxCell id="s2p4G6TEXcPG5f_NmB---91" style="edgeStyle=orthogonalEdgeStyle;rounded=0;orthogonalLoop=1;jettySize=auto;html=1;exitX=0.5;exitY=1;exitDx=0;exitDy=0;fontSize=12;" edge="1" parent="1" source="s2p4G6TEXcPG5f_NmB---75">
          <mxGeometry relative="1" as="geometry">
            <mxPoint x="553" y="338" as="targetPoint" />
          </mxGeometry>
        </mxCell>
        <mxCell id="s2p4G6TEXcPG5f_NmB---92" style="edgeStyle=orthogonalEdgeStyle;rounded=0;orthogonalLoop=1;jettySize=auto;html=1;exitX=0.5;exitY=1;exitDx=0;exitDy=0;fontSize=12;" edge="1" parent="1" source="s2p4G6TEXcPG5f_NmB---75" target="s2p4G6TEXcPG5f_NmB---89">
          <mxGeometry relative="1" as="geometry" />
        </mxCell>
        <mxCell id="s2p4G6TEXcPG5f_NmB---75" value="&lt;p&gt;&lt;font style=&quot;font-size: 12px&quot;&gt;温度传感异常&lt;/font&gt;&lt;br&gt;&lt;/p&gt;" style="rounded=0;whiteSpace=wrap;html=1;fontSize=24;align=center;" vertex="1" parent="1">
          <mxGeometry x="573" y="268" width="75" height="38" as="geometry" />
        </mxCell>
        <mxCell id="s2p4G6TEXcPG5f_NmB---99" value="" style="edgeStyle=orthogonalEdgeStyle;rounded=0;orthogonalLoop=1;jettySize=auto;html=1;fontSize=12;" edge="1" parent="1" source="s2p4G6TEXcPG5f_NmB---76" target="s2p4G6TEXcPG5f_NmB---90">
          <mxGeometry relative="1" as="geometry" />
        </mxCell>
        <mxCell id="s2p4G6TEXcPG5f_NmB---76" value="&lt;div&gt;&lt;span style=&quot;font-size: 14px ; line-height: 1&quot;&gt;安全保护&lt;/span&gt;&lt;/div&gt;" style="rounded=0;whiteSpace=wrap;html=1;fontSize=24;align=center;" vertex="1" parent="1">
          <mxGeometry x="717" y="270" width="75" height="38" as="geometry" />
        </mxCell>
        <mxCell id="s2p4G6TEXcPG5f_NmB---119" style="edgeStyle=orthogonalEdgeStyle;rounded=0;orthogonalLoop=1;jettySize=auto;html=1;exitX=0.5;exitY=1;exitDx=0;exitDy=0;entryX=0.5;entryY=0;entryDx=0;entryDy=0;fontSize=12;" edge="1" parent="1" source="s2p4G6TEXcPG5f_NmB---87" target="s2p4G6TEXcPG5f_NmB---118">
          <mxGeometry relative="1" as="geometry" />
        </mxCell>
        <mxCell id="s2p4G6TEXcPG5f_NmB---87" value="按键失效" style="rounded=0;whiteSpace=wrap;html=1;fontSize=14;" vertex="1" parent="1">
          <mxGeometry x="654" y="449" width="75" height="38" as="geometry" />
        </mxCell>
        <mxCell id="s2p4G6TEXcPG5f_NmB---101" style="edgeStyle=orthogonalEdgeStyle;rounded=0;orthogonalLoop=1;jettySize=auto;html=1;fontSize=12;" edge="1" parent="1" source="s2p4G6TEXcPG5f_NmB---88" target="s2p4G6TEXcPG5f_NmB---87">
          <mxGeometry relative="1" as="geometry">
            <Array as="points">
              <mxPoint x="556" y="397" />
              <mxPoint x="689" y="397" />
            </Array>
          </mxGeometry>
        </mxCell>
        <mxCell id="s2p4G6TEXcPG5f_NmB---88" value="断码屏显示E1" style="rounded=1;whiteSpace=wrap;html=1;fontSize=14;shadow=0;glass=0;" vertex="1" parent="1">
          <mxGeometry x="527" y="339" width="58" height="38" as="geometry" />
        </mxCell>
        <mxCell id="s2p4G6TEXcPG5f_NmB---103" style="edgeStyle=orthogonalEdgeStyle;rounded=0;orthogonalLoop=1;jettySize=auto;html=1;exitX=0.5;exitY=1;exitDx=0;exitDy=0;fontSize=12;" edge="1" parent="1" source="s2p4G6TEXcPG5f_NmB---89">
          <mxGeometry relative="1" as="geometry">
            <mxPoint x="689" y="449" as="targetPoint" />
            <Array as="points">
              <mxPoint x="659" y="397" />
              <mxPoint x="689" y="397" />
            </Array>
          </mxGeometry>
        </mxCell>
        <mxCell id="s2p4G6TEXcPG5f_NmB---89" value="断码屏显示E2" style="rounded=1;whiteSpace=wrap;html=1;fontSize=14;" vertex="1" parent="1">
          <mxGeometry x="629.5" y="341" width="58" height="38" as="geometry" />
        </mxCell>
        <mxCell id="s2p4G6TEXcPG5f_NmB---106" style="edgeStyle=orthogonalEdgeStyle;rounded=0;orthogonalLoop=1;jettySize=auto;html=1;exitX=0.5;exitY=1;exitDx=0;exitDy=0;entryX=0.5;entryY=0;entryDx=0;entryDy=0;fontSize=12;" edge="1" parent="1">
          <mxGeometry relative="1" as="geometry">
            <mxPoint x="752" y="379" as="sourcePoint" />
            <mxPoint x="688.5" y="450" as="targetPoint" />
            <Array as="points">
              <mxPoint x="752" y="397" />
              <mxPoint x="689" y="397" />
            </Array>
          </mxGeometry>
        </mxCell>
        <mxCell id="s2p4G6TEXcPG5f_NmB---90" value="断码屏显示FF" style="rounded=1;whiteSpace=wrap;html=1;fontSize=14;" vertex="1" parent="1">
          <mxGeometry x="726" y="341" width="58" height="38" as="geometry" />
        </mxCell>
        <mxCell id="s2p4G6TEXcPG5f_NmB---93" value="短路" style="text;html=1;strokeColor=none;fillColor=none;align=center;verticalAlign=middle;whiteSpace=wrap;rounded=0;fontSize=12;" vertex="1" parent="1">
          <mxGeometry x="513" y="299" width="60" height="30" as="geometry" />
        </mxCell>
        <mxCell id="s2p4G6TEXcPG5f_NmB---96" value="开路" style="text;html=1;strokeColor=none;fillColor=none;align=center;verticalAlign=middle;whiteSpace=wrap;rounded=0;fontSize=12;" vertex="1" parent="1">
          <mxGeometry x="634" y="299" width="60" height="30" as="geometry" />
        </mxCell>
        <mxCell id="s2p4G6TEXcPG5f_NmB---100" value="环境温度大于50" style="text;html=1;strokeColor=none;fillColor=none;align=center;verticalAlign=middle;whiteSpace=wrap;rounded=0;fontSize=12;" vertex="1" parent="1">
          <mxGeometry x="726" y="218" width="60" height="30" as="geometry" />
        </mxCell>
        <mxCell id="s2p4G6TEXcPG5f_NmB---107" value="蜂鸣器长鸣10s" style="text;html=1;strokeColor=none;fillColor=none;align=center;verticalAlign=middle;whiteSpace=wrap;rounded=0;fontSize=12;" vertex="1" parent="1">
          <mxGeometry x="698" y="407" width="60" height="30" as="geometry" />
        </mxCell>
        <mxCell id="s2p4G6TEXcPG5f_NmB---109" value="异常处理" style="rounded=0;whiteSpace=wrap;html=1;fontSize=14;" vertex="1" parent="1">
          <mxGeometry x="654" y="193" width="58" height="38" as="geometry" />
        </mxCell>
        <mxCell id="s2p4G6TEXcPG5f_NmB---110" value="档位DP上报" style="rounded=1;whiteSpace=wrap;html=1;fontSize=12;" vertex="1" parent="1">
          <mxGeometry x="8" y="330" width="67" height="32" as="geometry" />
        </mxCell>
        <mxCell id="s2p4G6TEXcPG5f_NmB---114" value="断码屏切换温度定时显示" style="rounded=1;whiteSpace=wrap;html=1;fontSize=12;" vertex="1" parent="1">
          <mxGeometry x="-646" y="983" width="81" height="40" as="geometry" />
        </mxCell>
        <mxCell id="s2p4G6TEXcPG5f_NmB---120" style="edgeStyle=orthogonalEdgeStyle;rounded=0;orthogonalLoop=1;jettySize=auto;html=1;exitX=0.5;exitY=1;exitDx=0;exitDy=0;fontSize=12;" edge="1" parent="1" source="s2p4G6TEXcPG5f_NmB---118">
          <mxGeometry relative="1" as="geometry">
            <mxPoint x="692" y="624" as="targetPoint" />
          </mxGeometry>
        </mxCell>
        <mxCell id="s2p4G6TEXcPG5f_NmB---118" value="异常处理DP上报" style="rounded=0;whiteSpace=wrap;html=1;fontSize=14;" vertex="1" parent="1">
          <mxGeometry x="654" y="528" width="75" height="38" as="geometry" />
        </mxCell>
        <mxCell id="s2p4G6TEXcPG5f_NmB---121" value="重新上电" style="text;html=1;strokeColor=none;fillColor=none;align=center;verticalAlign=middle;whiteSpace=wrap;rounded=0;shadow=0;glass=0;fontSize=12;" vertex="1" parent="1">
          <mxGeometry x="690" y="579" width="60" height="30" as="geometry" />
        </mxCell>
        <mxCell id="s2p4G6TEXcPG5f_NmB---122" value="5s内按键无操作" style="text;html=1;strokeColor=none;fillColor=none;align=center;verticalAlign=middle;whiteSpace=wrap;rounded=0;shadow=0;glass=0;fontSize=12;" vertex="1" parent="1">
          <mxGeometry x="196" y="464" width="74" height="30" as="geometry" />
        </mxCell>
        <mxCell id="s2p4G6TEXcPG5f_NmB---127" value="温度指示灯常亮" style="ellipse;whiteSpace=wrap;html=1;" vertex="1" parent="1">
          <mxGeometry x="-587" y="409.5" width="63" height="41" as="geometry" />
        </mxCell>
        <mxCell id="s2p4G6TEXcPG5f_NmB---128" value="档位指示灯常亮" style="ellipse;whiteSpace=wrap;html=1;" vertex="1" parent="1">
          <mxGeometry x="-508" y="412.5" width="63" height="41" as="geometry" />
        </mxCell>
        <mxCell id="s2p4G6TEXcPG5f_NmB---150" style="edgeStyle=orthogonalEdgeStyle;rounded=0;orthogonalLoop=1;jettySize=auto;html=1;exitX=0.5;exitY=1;exitDx=0;exitDy=0;entryX=0.5;entryY=0;entryDx=0;entryDy=0;fontSize=12;" edge="1" parent="1" source="s2p4G6TEXcPG5f_NmB---143" target="s2p4G6TEXcPG5f_NmB---1">
          <mxGeometry relative="1" as="geometry" />
        </mxCell>
        <mxCell id="s2p4G6TEXcPG5f_NmB---152" style="edgeStyle=orthogonalEdgeStyle;rounded=0;orthogonalLoop=1;jettySize=auto;html=1;exitX=0.5;exitY=1;exitDx=0;exitDy=0;fontSize=12;" edge="1" parent="1">
          <mxGeometry relative="1" as="geometry">
            <mxPoint x="-326.5" y="231" as="sourcePoint" />
            <mxPoint x="-244" y="263.5" as="targetPoint" />
            <Array as="points">
              <mxPoint x="-327" y="237.5" />
              <mxPoint x="-244" y="237.5" />
            </Array>
          </mxGeometry>
        </mxCell>
        <mxCell id="s2p4G6TEXcPG5f_NmB---143" value="&lt;font style=&quot;font-size: 14px&quot;&gt;电源键&lt;/font&gt;" style="rounded=0;whiteSpace=wrap;html=1;fontSize=24;" vertex="1" parent="1">
          <mxGeometry x="-363" y="177" width="75" height="38" as="geometry" />
        </mxCell>
        <mxCell id="s2p4G6TEXcPG5f_NmB---148" value="低中高档位指示灯常亮" style="ellipse;whiteSpace=wrap;html=1;" vertex="1" parent="1">
          <mxGeometry x="-813" y="407.5" width="76" height="42" as="geometry" />
        </mxCell>
        <mxCell id="s2p4G6TEXcPG5f_NmB---153" value="长按" style="text;html=1;strokeColor=none;fillColor=none;align=center;verticalAlign=middle;whiteSpace=wrap;rounded=0;shadow=0;glass=0;fontSize=12;" vertex="1" parent="1">
          <mxGeometry x="-280" y="210.5" width="60" height="30" as="geometry" />
        </mxCell>
        <mxCell id="s2p4G6TEXcPG5f_NmB---154" value="短按" style="text;html=1;strokeColor=none;fillColor=none;align=center;verticalAlign=middle;whiteSpace=wrap;rounded=0;shadow=0;glass=0;fontSize=12;" vertex="1" parent="1">
          <mxGeometry x="-438" y="207.5" width="60" height="30" as="geometry" />
        </mxCell>
        <mxCell id="s2p4G6TEXcPG5f_NmB---159" value="长按3s" style="text;html=1;strokeColor=none;fillColor=none;align=center;verticalAlign=middle;whiteSpace=wrap;rounded=0;shadow=0;glass=0;fontSize=12;" vertex="1" parent="1">
          <mxGeometry x="-169" y="504.5" width="60" height="30" as="geometry" />
        </mxCell>
        <mxCell id="s2p4G6TEXcPG5f_NmB---160" value="" style="endArrow=classic;html=1;rounded=0;fontSize=12;" edge="1" parent="1">
          <mxGeometry width="50" height="50" relative="1" as="geometry">
            <mxPoint x="-93" y="252.5" as="sourcePoint" />
            <mxPoint x="-241" y="252.5" as="targetPoint" />
          </mxGeometry>
        </mxCell>
        <mxCell id="s2p4G6TEXcPG5f_NmB---163" value="温度设置成功，目标温度DP上报" style="rounded=1;whiteSpace=wrap;html=1;fontSize=14;" vertex="1" parent="1">
          <mxGeometry x="141.5" y="487" width="90.5" height="56" as="geometry" />
        </mxCell>
        <mxCell id="s2p4G6TEXcPG5f_NmB---169" style="edgeStyle=orthogonalEdgeStyle;rounded=0;orthogonalLoop=1;jettySize=auto;html=1;exitX=0.5;exitY=1;exitDx=0;exitDy=0;fontSize=12;" edge="1" parent="1" source="s2p4G6TEXcPG5f_NmB---165" target="s2p4G6TEXcPG5f_NmB---114">
          <mxGeometry relative="1" as="geometry" />
        </mxCell>
        <mxCell id="s2p4G6TEXcPG5f_NmB---189" style="edgeStyle=orthogonalEdgeStyle;rounded=0;orthogonalLoop=1;jettySize=auto;html=1;exitX=0.5;exitY=1;exitDx=0;exitDy=0;entryX=0.5;entryY=0;entryDx=0;entryDy=0;fontSize=12;" edge="1" parent="1" source="s2p4G6TEXcPG5f_NmB---165" target="s2p4G6TEXcPG5f_NmB---188">
          <mxGeometry relative="1" as="geometry" />
        </mxCell>
        <mxCell id="s2p4G6TEXcPG5f_NmB---165" value="定时时长大于0" style="rhombus;whiteSpace=wrap;html=1;rounded=1;shadow=0;glass=0;fontSize=12;align=center;" vertex="1" parent="1">
          <mxGeometry x="-739.37" y="878" width="137.75" height="60" as="geometry" />
        </mxCell>
        <mxCell id="s2p4G6TEXcPG5f_NmB---171" value="是" style="text;html=1;strokeColor=none;fillColor=none;align=center;verticalAlign=middle;whiteSpace=wrap;rounded=0;shadow=0;glass=0;fontSize=12;" vertex="1" parent="1">
          <mxGeometry x="-664" y="931" width="60" height="30" as="geometry" />
        </mxCell>
        <mxCell id="s2p4G6TEXcPG5f_NmB---172" value="短按" style="text;html=1;strokeColor=none;fillColor=none;align=center;verticalAlign=middle;whiteSpace=wrap;rounded=0;shadow=0;glass=0;fontSize=12;" vertex="1" parent="1">
          <mxGeometry x="94" y="303" width="60" height="30" as="geometry" />
        </mxCell>
        <mxCell id="s2p4G6TEXcPG5f_NmB---181" style="edgeStyle=orthogonalEdgeStyle;rounded=0;orthogonalLoop=1;jettySize=auto;html=1;exitX=0.5;exitY=1;exitDx=0;exitDy=0;entryX=0.5;entryY=0;entryDx=0;entryDy=0;fontSize=12;" edge="1" parent="1" source="s2p4G6TEXcPG5f_NmB---173" target="s2p4G6TEXcPG5f_NmB---163">
          <mxGeometry relative="1" as="geometry" />
        </mxCell>
        <mxCell id="s2p4G6TEXcPG5f_NmB---173" value="温度每隔一秒上升一度循环显示，" style="ellipse;whiteSpace=wrap;html=1;rounded=1;shadow=0;glass=0;fontSize=12;" vertex="1" parent="1">
          <mxGeometry x="227" y="378.5" width="96" height="47" as="geometry" />
        </mxCell>
        <mxCell id="s2p4G6TEXcPG5f_NmB---176" value="长按" style="text;html=1;strokeColor=none;fillColor=none;align=center;verticalAlign=middle;whiteSpace=wrap;rounded=0;shadow=0;glass=0;fontSize=12;" vertex="1" parent="1">
          <mxGeometry x="224.25" y="303" width="60" height="30" as="geometry" />
        </mxCell>
        <mxCell id="s2p4G6TEXcPG5f_NmB---185" style="edgeStyle=orthogonalEdgeStyle;rounded=0;orthogonalLoop=1;jettySize=auto;html=1;exitX=0.5;exitY=1;exitDx=0;exitDy=0;fontSize=12;" edge="1" parent="1">
          <mxGeometry relative="1" as="geometry">
            <mxPoint x="189.5" y="316.9999999999998" as="sourcePoint" />
            <mxPoint x="107" y="386" as="targetPoint" />
            <Array as="points">
              <mxPoint x="190" y="331" />
              <mxPoint x="107" y="331" />
            </Array>
          </mxGeometry>
        </mxCell>
        <mxCell id="s2p4G6TEXcPG5f_NmB---186" style="edgeStyle=orthogonalEdgeStyle;rounded=0;orthogonalLoop=1;jettySize=auto;html=1;exitX=0.5;exitY=1;exitDx=0;exitDy=0;fontSize=12;" edge="1" parent="1" source="s2p4G6TEXcPG5f_NmB---182" target="s2p4G6TEXcPG5f_NmB---173">
          <mxGeometry relative="1" as="geometry">
            <Array as="points">
              <mxPoint x="190" y="331" />
              <mxPoint x="275" y="331" />
            </Array>
          </mxGeometry>
        </mxCell>
        <mxCell id="s2p4G6TEXcPG5f_NmB---182" value="℃指示灯（常亮）" style="ellipse;whiteSpace=wrap;html=1;" vertex="1" parent="1">
          <mxGeometry x="158" y="271" width="63" height="41" as="geometry" />
        </mxCell>
        <mxCell id="s2p4G6TEXcPG5f_NmB---187" value="短按" style="text;html=1;strokeColor=none;fillColor=none;align=center;verticalAlign=middle;whiteSpace=wrap;rounded=0;shadow=0;glass=0;fontSize=12;" vertex="1" parent="1">
          <mxGeometry x="-661.62" y="732" width="60" height="30" as="geometry" />
        </mxCell>
        <mxCell id="s2p4G6TEXcPG5f_NmB---188" value="未设置定时" style="rounded=1;whiteSpace=wrap;html=1;fontSize=12;" vertex="1" parent="1">
          <mxGeometry x="-769" y="983" width="81" height="40" as="geometry" />
        </mxCell>
        <mxCell id="s2p4G6TEXcPG5f_NmB---190" value="否" style="text;html=1;strokeColor=none;fillColor=none;align=center;verticalAlign=middle;whiteSpace=wrap;rounded=0;shadow=0;glass=0;fontSize=12;" vertex="1" parent="1">
          <mxGeometry x="-751.5" y="931" width="60" height="30" as="geometry" />
        </mxCell>
        <mxCell id="s2p4G6TEXcPG5f_NmB---193" value="定时任务取消" style="rounded=1;whiteSpace=wrap;html=1;fontSize=12;" vertex="1" parent="1">
          <mxGeometry x="-545" y="756" width="81" height="40" as="geometry" />
        </mxCell>
      </root>
    </mxGraphModel>
  </diagram>
</mxfile>
